<?xml version="1.0" encoding="utf-8"?>
<!-- Generator: Adobe Illustrator 26.0.1, SVG Export Plug-In . SVG Version: 6.00 Build 0)  -->
<svg version="1.1" id="Ebene_1" xmlns="http://www.w3.org/2000/svg" xmlns:xlink="http://www.w3.org/1999/xlink" x="0px" y="0px"
	 viewBox="0 0 415.1 39.9" style="enable-background:new 0 0 415.1 39.9;" xml:space="preserve">
<style type="text/css">
	.st0{fill:#E94545;}
	.st1{fill:#858585;}
	.st2{fill:#FFFFFF;}
	.st3{fill:#424242;}
</style>
<g>
	<path class="st0" d="M35.7,7h2v28h-2V7z"/>
	<path class="st0" d="M70.3,7v28h-1.7L49.5,10.7V35h-2V7h1.7l19,24.3V7H70.3z"/>
	<path class="st0" d="M82.1,8.9v12H97v1.8H82.1V35h-2V7h18.7v1.8H82.1z"/>
	<path class="st0" d="M121.3,27.1H105l-3.6,7.9h-2.2l12.9-28h2l12.9,28h-2.2L121.3,27.1z M120.5,25.4l-7.4-16.2l-7.3,16.2H120.5z"/>
	<path class="st0" d="M136.2,33.4c-2.2-1.2-3.9-2.9-5.2-5.1s-1.9-4.6-1.9-7.3c0-2.7,0.6-5.1,1.9-7.3c1.3-2.2,3-3.9,5.2-5.1
		s4.7-1.8,7.4-1.8c2,0,3.9,0.3,5.6,1c1.7,0.7,3.2,1.6,4.4,2.9l-1.3,1.3c-2.2-2.2-5.1-3.3-8.6-3.3c-2.3,0-4.5,0.5-6.4,1.6
		s-3.4,2.5-4.5,4.4c-1.1,1.9-1.6,4-1.6,6.3c0,2.3,0.5,4.4,1.6,6.3c1.1,1.9,2.6,3.4,4.5,4.4s4.1,1.6,6.4,1.6c3.5,0,6.3-1.1,8.6-3.4
		l1.3,1.3c-1.2,1.3-2.7,2.3-4.4,2.9c-1.7,0.7-3.6,1-5.6,1C140.8,35.2,138.4,34.6,136.2,33.4z"/>
	<path class="st0" d="M183.2,7v28h-2V21.7h-18.7V35h-2V7h2v12.9h18.7V7H183.2z"/>
	<path class="st1" d="M212.7,35.5l-3.7-3.7c-2.5,2.4-5.6,3.6-9.4,3.6c-1.9,0-3.5-0.3-5-0.9s-2.7-1.5-3.5-2.6
		c-0.8-1.1-1.3-2.4-1.3-3.8c0-1.7,0.5-3.2,1.6-4.5c1.1-1.3,2.8-2.7,5.2-4.1c-1.2-1.2-2.1-2.3-2.6-3.3c-0.5-1-0.8-2-0.8-3.1
		c0-1.9,0.7-3.4,2.1-4.6c1.4-1.1,3.2-1.7,5.5-1.7c2.1,0,3.8,0.5,5.1,1.6c1.3,1,1.9,2.5,1.9,4.3c0,1.4-0.5,2.7-1.4,3.8
		s-2.4,2.3-4.6,3.5l6.9,6.9c0.8-1.5,1.4-3.2,1.7-5.1l3.1,1c-0.5,2.5-1.3,4.6-2.4,6.4l3.8,3.8L212.7,35.5z M206.7,29.5l-8-7.9
		c-1.9,1.1-3.3,2.1-4,3s-1.1,2-1.1,3.1c0,1.3,0.6,2.4,1.7,3.2c1.2,0.8,2.7,1.2,4.5,1.2C202.7,32.1,204.9,31.3,206.7,29.5z
		 M197.9,10.5c-0.7,0.6-1.1,1.4-1.1,2.5c0,0.7,0.2,1.4,0.6,2.1c0.4,0.7,1.1,1.6,2.3,2.7c1.8-1,3.1-1.9,3.8-2.7
		c0.7-0.7,1.1-1.6,1.1-2.4c0-0.9-0.3-1.7-1-2.2c-0.7-0.6-1.6-0.8-2.7-0.8C199.6,9.6,198.6,9.9,197.9,10.5z"/>
	<path class="st0" d="M253.1,8.9v12H268v1.8h-14.9V35h-2V7h18.7v1.8H253.1z"/>
	<path class="st0" d="M278.3,8.9v12h14.9v1.8h-14.9V35h-2V7H295v1.8H278.3z"/>
	<path class="st0" d="M320.8,33.2V35h-19.3V7h18.7v1.8h-16.7v11h14.9v1.8h-14.9v11.5H320.8z"/>
	<path class="st0" d="M336.6,21.2l-6.3,6.4V35h-2V7h2v18l17.5-18h2.5L338,19.7L351.1,35h-2.5L336.6,21.2z"/>
	<path class="st0" d="M360.2,8.9h-10.1V7h22.2v1.8h-10.1V35h-2V8.9z"/>
	<path class="st0" d="M377.4,7h2v28h-2V7z"/>
	<path class="st0" d="M411.2,7l-12.5,28h-2L384.2,7h2.2l11.3,25.4L409.1,7H411.2z"/>
</g>
<path class="st0" d="M19.7,30.6c-1.2,0.4-2.4,0.5-3.7,0.5c-1.6,0-2.8-0.2-3.8-0.6c-0.9-0.4-1.7-0.8-2.2-1.4
	c-0.5-0.6-0.9-1.3-1.1-2.1c-0.2-0.9-0.3-1.8-0.3-2.8v-0.4c2.9-0.1,5.5-0.4,7.9-0.7c2.6-0.3,4.9-0.9,6.8-1.7c2-0.8,3.5-1.9,4.6-3.3
	c1.1-1.4,1.7-3.3,1.7-5.6c0-2.4-0.8-4.4-2.3-5.9c-1.5-1.5-3.7-2.3-6.5-2.3c-2.8,0-5.3,0.6-7.4,1.8C11.3,7.4,9.5,9,8,10.9
	c-1.5,1.9-2.6,4.1-3.3,6.5c-0.7,2.4-1.1,4.9-1.1,7.3c0,1.6,0.2,3.1,0.6,4.5c0.4,1.4,1.1,2.7,2.1,3.7c1,1,2.2,1.8,3.7,2.4
	c1.5,0.6,3.3,0.8,5.4,0.8c1.6,0,3.6-0.3,5.2-0.7c4-1,6.4-3,7.6-4l0.3-0.2v-6.6L27,26.1C25.9,27.3,23.2,29.6,19.7,30.6z M24.5,12.8
	c0,0.9-0.2,1.7-0.7,2.4c-0.5,0.7-1.3,1.3-2.5,1.9c-1.2,0.6-2.9,1-5,1.3c-1.9,0.3-4.1,0.5-6.8,0.6c0.3-1.1,0.8-2.1,1.3-3.1
	c0.7-1.3,1.6-2.5,2.6-3.4c1-1,2.1-1.7,3.3-2.3c1.2-0.6,2.5-0.8,3.8-0.8c1.2,0,2.2,0.3,2.9,0.9C24.1,10.8,24.5,11.6,24.5,12.8z"/>
<path class="st0" d="M235.4,30.6c-1.2,0.4-2.4,0.5-3.7,0.5c-1.6,0-2.8-0.2-3.8-0.6c-0.9-0.4-1.7-0.8-2.2-1.4
	c-0.5-0.6-0.9-1.3-1.1-2.1c-0.2-0.9-0.3-1.8-0.3-2.8v-0.4c2.9-0.1,5.5-0.4,7.9-0.7c2.6-0.3,4.9-0.9,6.8-1.7c2-0.8,3.5-1.9,4.6-3.3
	c1.1-1.4,1.7-3.3,1.7-5.6c0-2.4-0.8-4.4-2.3-5.9c-1.5-1.5-3.7-2.3-6.5-2.3c-2.8,0-5.3,0.6-7.4,1.8c-2.2,1.2-4,2.8-5.5,4.7
	c-1.5,1.9-2.6,4.1-3.3,6.5c-0.7,2.4-1.1,4.9-1.1,7.3c0,1.6,0.2,3.1,0.6,4.5c0.4,1.4,1.1,2.7,2.1,3.7c1,1,2.2,1.8,3.7,2.4
	c1.5,0.6,3.3,0.8,5.4,0.8c1.6,0,3.6-0.3,5.2-0.7c4-1,6.4-3,7.6-4l0.3-0.2v-6.6l-1.4,1.5C241.6,27.3,238.8,29.6,235.4,30.6z
	 M240.1,12.8c0,0.9-0.2,1.7-0.7,2.4c-0.5,0.7-1.3,1.3-2.5,1.9c-1.2,0.6-2.9,1-5,1.3c-1.9,0.3-4.1,0.5-6.8,0.6
	c0.3-1.1,0.8-2.1,1.3-3.1c0.7-1.3,1.6-2.5,2.6-3.4c1-1,2.1-1.7,3.3-2.3c1.2-0.6,2.5-0.8,3.8-0.8c1.2,0,2.2,0.3,2.9,0.9
	C239.8,10.8,240.1,11.6,240.1,12.8z"/>
</svg>
